<svg width="50" height="49" viewBox="0 0 50 49" fill="none" xmlns="http://www.w3.org/2000/svg">
<path opacity="0.1" fill-rule="evenodd" clip-rule="evenodd" d="M24.9921 47.9769C37.8489 47.9769 48.2714 37.5545 48.2714 24.6977C48.2714 11.8409 37.8489 1.41846 24.9921 1.41846C12.1354 1.41846 1.71289 11.8409 1.71289 24.6977C1.71289 37.5545 12.1354 47.9769 24.9921 47.9769Z" stroke="#0A142F" stroke-width="1.99536"/>
<path d="M27.1116 18.7394H29.2511C29.448 18.7394 29.6077 18.5889 29.6077 18.4034V16.3873C29.6077 16.2018 29.448 16.0513 29.2511 16.0513H27.1116C24.9493 16.0513 23.1891 17.7092 23.1891 19.7474V22.0996H20.693C20.4962 22.0996 20.3364 22.2501 20.3364 22.4356V24.4517C20.3364 24.6372 20.4962 24.7877 20.693 24.7877H23.1891V31.844C23.1891 32.0295 23.3489 32.1801 23.5457 32.1801H25.6853C25.8821 32.1801 26.0418 32.0295 26.0418 31.844V24.7877H28.538C28.6913 24.7877 28.8275 24.695 28.8767 24.5579L29.5899 22.5418C29.6263 22.4396 29.6077 22.3267 29.5407 22.2387C29.4729 22.1513 29.366 22.0996 29.2511 22.0996H26.0418V19.7474C26.0418 19.1917 26.5218 18.7394 27.1116 18.7394Z" fill="#0A142F"/>
</svg>
