<svg width="49" height="49" viewBox="0 0 49 49" fill="none" xmlns="http://www.w3.org/2000/svg">
<path opacity="0.1" fill-rule="evenodd" clip-rule="evenodd" d="M24.4804 47.9769C37.3372 47.9769 47.7596 37.5545 47.7596 24.6977C47.7596 11.8409 37.3372 1.41846 24.4804 1.41846C11.6236 1.41846 1.20117 11.8409 1.20117 24.6977C1.20117 37.5545 11.6236 47.9769 24.4804 47.9769Z" stroke="#0A142F" stroke-width="1.99536"/>
<path d="M19.1375 19.9982C20.2275 19.9982 21.111 19.1147 21.111 18.0247C21.111 16.9348 20.2275 16.0513 19.1375 16.0513C18.0476 16.0513 17.1641 16.9348 17.1641 18.0247C17.1641 19.1147 18.0476 19.9982 19.1375 19.9982Z" fill="#0A142F"/>
<path d="M20.7821 21.3164H17.493C17.3114 21.3164 17.1641 21.4638 17.1641 21.6453V31.5127C17.1641 31.6943 17.3114 31.8416 17.493 31.8416H20.7821C20.9637 31.8416 21.111 31.6943 21.111 31.5127V21.6453C21.111 21.4638 20.9637 21.3164 20.7821 21.3164Z" fill="#0A142F"/>
<path d="M30.5833 20.7686C29.1775 20.2871 27.4192 20.71 26.3647 21.4685C26.3285 21.3271 26.1995 21.2218 26.0463 21.2218H22.7571C22.5756 21.2218 22.4282 21.3692 22.4282 21.5507V31.4181C22.4282 31.5997 22.5756 31.7471 22.7571 31.7471H26.0463C26.2278 31.7471 26.3752 31.5997 26.3752 31.4181V24.3268C26.9067 23.8689 27.5915 23.7229 28.152 23.961C28.6953 24.1906 29.0065 24.7511 29.0065 25.4977V31.4181C29.0065 31.5997 29.1538 31.7471 29.3354 31.7471H32.6245C32.8061 31.7471 32.9535 31.5997 32.9535 31.4181V24.8353C32.916 22.1323 31.6444 21.1317 30.5833 20.7686Z" fill="#0A142F"/>
</svg>
