<svg xmlns="http://www.w3.org/2000/svg" width="104" height="104" viewBox="0 0 104 104" fill="none">
<g opacity="0.12">
<path d="M79.0648 52.7628C88.7839 52.7628 95.3334 59.6457 95.3334 69.844C95.3334 79.0213 87.8058 86.6668 77.6101 86.6668C66.4425 86.6668 58.1906 77.4896 58.1906 63.4717C58.1906 31.6099 81.0087 18.8651 95.3334 17.3335V31.3514C85.6206 33.1352 74.7006 43.0751 74.2115 54.0423C74.7006 53.7902 76.6382 52.7628 79.0648 52.7628ZM29.5472 52.7628C39.2539 52.7628 45.8096 59.6457 45.8096 69.844C45.8096 79.0213 38.282 86.6668 28.0863 86.6668C16.9187 86.6668 8.66675 77.4896 8.66675 63.4717C8.66675 31.6099 31.4848 18.8651 45.8096 17.3335V31.3514C36.0967 33.1352 25.1767 43.0751 24.6877 54.0423C25.1767 53.7902 27.1144 52.7628 29.5472 52.7628Z" fill="#46CEFA"/>
</g>
</svg>