<svg width="49" height="49" viewBox="0 0 49 49" fill="none" xmlns="http://www.w3.org/2000/svg">
<path opacity="0.1" fill-rule="evenodd" clip-rule="evenodd" d="M24.5043 47.9769C37.3611 47.9769 47.7836 37.5545 47.7836 24.6977C47.7836 11.8409 37.3611 1.41846 24.5043 1.41846C11.6476 1.41846 1.2251 11.8409 1.2251 24.6977C1.2251 37.5545 11.6476 47.9769 24.5043 47.9769Z" stroke="#0A142F" stroke-width="1.99536"/>
<path d="M32.1137 20.3942C32.0057 20.2721 31.8315 20.2414 31.6887 20.3167C31.5998 20.3635 31.4328 20.4249 31.2345 20.4856C31.4847 20.1435 31.6858 19.7604 31.7747 19.416C31.8131 19.2676 31.7569 19.1111 31.6347 19.0227C31.5124 18.9349 31.3496 18.9349 31.2274 19.0227C31.0347 19.1609 30.105 19.5761 29.5172 19.7107C28.1887 18.5138 26.6427 18.3895 25.0356 19.3546C23.7291 20.1391 23.4448 21.7344 23.5002 22.7067C20.5099 22.4106 18.6511 20.7861 17.6048 19.4416C17.5316 19.3473 17.4136 19.2976 17.3027 19.3049C17.1862 19.3137 17.081 19.3802 17.0213 19.4833C16.5265 20.3423 16.3894 21.292 16.6261 22.2301C16.7554 22.7418 16.9815 23.1929 17.2437 23.5585C17.1179 23.4949 16.9964 23.4152 16.8819 23.3202C16.7767 23.231 16.6296 23.2141 16.5052 23.2734C16.3815 23.334 16.3026 23.4627 16.3026 23.6038C16.3026 25.2145 17.2821 26.2892 18.1969 26.8507C18.0491 26.8324 17.8948 26.7988 17.7392 26.7498C17.6055 26.7081 17.4605 26.7498 17.3681 26.858C17.2757 26.9655 17.2537 27.119 17.3113 27.2499C17.8252 28.4189 18.799 29.2231 20.0038 29.5149C18.9518 30.1502 17.5437 30.4616 16.2543 30.3088C16.0873 30.2847 15.928 30.3937 15.8754 30.5589C15.8228 30.7241 15.8918 30.9054 16.0389 30.9902C17.9951 32.1198 19.7635 32.5234 21.2918 32.5234C23.5159 32.5234 25.2325 31.6694 26.2773 30.9551C29.0942 29.0323 30.8499 25.58 30.6054 22.4911C31.0568 22.1482 31.732 21.515 32.1507 20.8344C32.2374 20.6969 32.2218 20.5156 32.1137 20.3942Z" fill="#0A142F"/>
</svg>
